<svg version="1.1" xmlns="http://www.w3.org/2000/svg" xmlns:xlink="http://www.w3.org/1999/xlink" width="48" height="48"><defs><linearGradient x1="9.82523" y1="10.80581" x2="62.36235" y2="71.38324" gradientUnits="userSpaceOnUse" id="color-1"><stop offset="0" stop-color="#000000" stop-opacity="0.27"></stop><stop offset="1" stop-color="#000000" stop-opacity="0"></stop></linearGradient><filter id="dropshadow-base"><feColorMatrix type="matrix" values="0 0 0 0 0  0 0 0 0 0  0 0 0 0 0  0 0 0 .8 0"></feColorMatrix> <feOffset dx="0" dy="1"></feOffset> <feGaussianBlur stdDeviation="1"></feGaussianBlur> <feComposite in="SourceGraphic"></feComposite></filter><filter id="dropshadow-banner" x="-10%" y="-10%" width="120%" height="130%"><feColorMatrix type="matrix" values="0 0 0 0 0  0 0 0 0 0  0 0 0 0 0  0 0 0 .4 0"></feColorMatrix> <feOffset dx="0" dy="1"></feOffset> <feGaussianBlur stdDeviation="0.5"></feGaussianBlur> <feComposite in="SourceGraphic"></feComposite></filter></defs><g fill="none" fill-rule="nonzero" stroke="none" stroke-width="none" stroke-linecap="butt" stroke-linejoin="miter" stroke-miterlimit="10" stroke-dasharray="" stroke-dashoffset="0" font-family="none" font-weight="none" font-size="none" text-anchor="none" style="mix-blend-mode: normal"><path d="M2,24c0,-12.15026 9.84974,-22 22,-22c12.15026,0 22,9.84974 22,22c0,12.15026 -9.84974,22 -22,22c-12.15026,0 -22,-9.84974 -22,-22z" id="base 1 13" fill="#6341b5" stroke-width="1"></path><path d="M10.99489,36.99794c-0.25227,-0.25227 -0.25227,-0.6613 0,-0.91358l1.78379,-1.78379l-1.78379,-1.78379c-0.25227,-0.25227 -0.25227,-0.6613 0,-0.91358c0.25235,-0.2522 0.66122,-0.2522 0.91358,0l1.78379,1.78379l0.04925,-0.04925l-3.7271,-3.7271c-0.11689,-0.11689 -0.18918,-0.27837 -0.18918,-0.45676c0,-0.35678 0.28917,-0.64594 0.64594,-0.64594h7.72901v-9.01587l2.71668,2.71668c0.61869,-1.06079 1.76907,-1.77518 3.08313,-1.77518c0.69314,0 1.34074,0.19877 1.88879,0.5423l-4.58616,-4.58616c-0.25227,-0.25227 -0.25227,-0.6613 0,-0.91358l1.78379,-1.78379l-1.78379,-1.78379c-0.25227,-0.25227 -0.25227,-0.6613 0,-0.91358c0.25235,-0.2522 0.66122,-0.2522 0.91358,0l1.78379,1.78379l1.78372,-1.78372c0.25235,-0.2522 0.66122,-0.2522 0.91358,0l0.00007,0.00007l18.58798,18.58798c-2.47101,9.44657 -11.06417,16.41693 -21.28535,16.41693c-1.52601,0 -3.01573,-0.15537 -4.45421,-0.45116z" fill="url(#color-1)" stroke-width="1"></path><path d="M18.20019,28.50793v-9.01586h-7.72901c-0.35677,0 -0.64594,-0.28917 -0.64594,-0.64594c0,-0.35677 0.28917,-0.64594 0.64594,-0.64594h7.72901v-7.72901c0,-0.35677 0.28917,-0.64594 0.64594,-0.64594c0.35677,0 0.64594,0.28917 0.64594,0.64594v7.72901h9.01586v-7.72901c0,-0.35677 0.28917,-0.64594 0.64594,-0.64594c0.35677,0 0.64594,0.28917 0.64594,0.64594v7.72901h7.72901c0.35677,0 0.64594,0.28917 0.64594,0.64594c0,0.35677 -0.28917,0.64594 -0.64594,0.64594h-7.72901v9.01586h7.72901c0.35677,0 0.64594,0.28917 0.64594,0.64594c0,0.35677 -0.28917,0.64594 -0.64594,0.64594h-7.72901v7.72901c0,0.35677 -0.28917,0.64594 -0.64594,0.64594c-0.35677,0 -0.64594,-0.28917 -0.64594,-0.64594v-7.72901h-9.01586v7.72901c0,0.35677 -0.28917,0.64594 -0.64594,0.64594c-0.35677,0 -0.64594,-0.28917 -0.64594,-0.64594v-7.72901h-7.72901c-0.35677,0 -0.64594,-0.28917 -0.64594,-0.64594c0,-0.35677 0.28917,-0.64594 0.64594,-0.64594zM19.49207,28.50793h9.01586v-9.01586h-9.01586zM26.6973,11.90846l-1.78379,1.78379l1.78379,1.78379c0.25227,0.25227 0.25227,0.6613 0,0.91357c-0.12617,0.1261 -0.29146,0.18919 -0.45675,0.18919c-0.16529,0 -0.33058,-0.06309 -0.45675,-0.18919l-1.78379,-1.78379l-1.78387,1.78387c-0.12617,0.1261 -0.29146,0.18919 -0.45675,0.18919c-0.16529,0 -0.33058,-0.06309 -0.45675,-0.18919c-0.25227,-0.25227 -0.25227,-0.6613 0,-0.91357l1.78379,-1.78379l-1.78379,-1.78379c-0.25227,-0.25227 -0.25227,-0.6613 0,-0.91357c0.25235,-0.2522 0.66123,-0.2522 0.91357,0l1.78379,1.78379l1.78372,-1.78372c0.25235,-0.2522 0.66123,-0.2522 0.91357,0c0.25227,0.2522 0.25227,0.6613 0,0.91343zM16.38948,32.51677l-1.78379,1.78379l1.78379,1.78379c0.25227,0.25227 0.25227,0.6613 0,0.91357c-0.12617,0.1261 -0.29146,0.18919 -0.45675,0.18919c-0.16529,0 -0.33058,-0.06309 -0.45675,-0.18919l-1.78379,-1.78379l-1.78379,1.78379c-0.12617,0.1261 -0.29146,0.18919 -0.45675,0.18919c-0.16529,0 -0.33058,-0.06309 -0.45675,-0.18919c-0.25227,-0.25227 -0.25227,-0.6613 0,-0.91357l1.78379,-1.78379l-1.78379,-1.78379c-0.25227,-0.25227 -0.25227,-0.6613 0,-0.91357c0.25235,-0.2522 0.66123,-0.2522 0.91357,0l1.78379,1.78379l1.78379,-1.78379c0.25235,-0.2522 0.66123,-0.2522 0.91357,0c0.25227,0.2522 0.25227,0.66123 -0.00014,0.91357zM27.56644,24c0,1.96652 -1.59992,3.56644 -3.56644,3.56644c-1.96652,0 -3.56644,-1.59992 -3.56644,-3.56644c0,-1.96652 1.59992,-3.56644 3.56644,-3.56644c1.96652,0 3.56644,1.59992 3.56644,3.56644zM26.27456,24c0,-1.2542 -1.02037,-2.27456 -2.27456,-2.27456c-1.2542,0 -2.27456,1.02037 -2.27456,2.27456c0,1.2542 1.0203,2.27456 2.27456,2.27456c1.25427,0 2.27456,-1.02037 2.27456,-2.27456z" fill="none" stroke-width="0"></path><path d="M18.20019,28.50793v-9.01586h-7.72901c-0.35677,0 -0.64594,-0.28917 -0.64594,-0.64594c0,-0.35677 0.28917,-0.64594 0.64594,-0.64594h7.72901v-7.72901c0,-0.35677 0.28917,-0.64594 0.64594,-0.64594c0.35677,0 0.64594,0.28917 0.64594,0.64594v7.72901h9.01586v-7.72901c0,-0.35677 0.28917,-0.64594 0.64594,-0.64594c0.35677,0 0.64594,0.28917 0.64594,0.64594v7.72901h7.72901c0.35677,0 0.64594,0.28917 0.64594,0.64594c0,0.35677 -0.28917,0.64594 -0.64594,0.64594h-7.72901v9.01586h7.72901c0.35677,0 0.64594,0.28917 0.64594,0.64594c0,0.35677 -0.28917,0.64594 -0.64594,0.64594h-7.72901v7.72901c0,0.35677 -0.28917,0.64594 -0.64594,0.64594c-0.35677,0 -0.64594,-0.28917 -0.64594,-0.64594v-7.72901h-9.01586v7.72901c0,0.35677 -0.28917,0.64594 -0.64594,0.64594c-0.35677,0 -0.64594,-0.28917 -0.64594,-0.64594v-7.72901h-7.72901c-0.35677,0 -0.64594,-0.28917 -0.64594,-0.64594c0,-0.35677 0.28917,-0.64594 0.64594,-0.64594zM19.49207,28.50793h9.01586v-9.01586h-9.01586zM26.6973,11.90846l-1.78379,1.78379l1.78379,1.78379c0.25227,0.25227 0.25227,0.6613 0,0.91357c-0.12617,0.1261 -0.29146,0.18919 -0.45675,0.18919c-0.16529,0 -0.33058,-0.06309 -0.45675,-0.18919l-1.78379,-1.78379l-1.78387,1.78387c-0.12617,0.1261 -0.29146,0.18919 -0.45675,0.18919c-0.16529,0 -0.33058,-0.06309 -0.45675,-0.18919c-0.25227,-0.25227 -0.25227,-0.6613 0,-0.91357l1.78379,-1.78379l-1.78379,-1.78379c-0.25227,-0.25227 -0.25227,-0.6613 0,-0.91357c0.25235,-0.2522 0.66123,-0.2522 0.91357,0l1.78379,1.78379l1.78372,-1.78372c0.25235,-0.2522 0.66123,-0.2522 0.91357,0c0.25227,0.2522 0.25227,0.6613 0,0.91343zM16.38948,32.51677l-1.78379,1.78379l1.78379,1.78379c0.25227,0.25227 0.25227,0.6613 0,0.91357c-0.12617,0.1261 -0.29146,0.18919 -0.45675,0.18919c-0.16529,0 -0.33058,-0.06309 -0.45675,-0.18919l-1.78379,-1.78379l-1.78379,1.78379c-0.12617,0.1261 -0.29146,0.18919 -0.45675,0.18919c-0.16529,0 -0.33058,-0.06309 -0.45675,-0.18919c-0.25227,-0.25227 -0.25227,-0.6613 0,-0.91357l1.78379,-1.78379l-1.78379,-1.78379c-0.25227,-0.25227 -0.25227,-0.6613 0,-0.91357c0.25235,-0.2522 0.66123,-0.2522 0.91357,0l1.78379,1.78379l1.78379,-1.78379c0.25235,-0.2522 0.66123,-0.2522 0.91357,0c0.25227,0.2522 0.25227,0.66123 -0.00014,0.91357zM27.56644,24c0,1.96652 -1.59992,3.56644 -3.56644,3.56644c-1.96652,0 -3.56644,-1.59992 -3.56644,-3.56644c0,-1.96652 1.59992,-3.56644 3.56644,-3.56644c1.96652,0 3.56644,1.59992 3.56644,3.56644zM26.27456,24c0,-1.2542 -1.02037,-2.27456 -2.27456,-2.27456c-1.2542,0 -2.27456,1.02037 -2.27456,2.27456c0,1.2542 1.0203,2.27456 2.27456,2.27456c1.25427,0 2.27456,-1.02037 2.27456,-2.27456z" fill="#ffffff" stroke-width="0"></path><path d="M2,24c0,-12.15026 9.84974,-22 22,-22c12.15026,0 22,9.84974 22,22c0,12.15026 -9.84974,22 -22,22c-12.15026,0 -22,-9.84974 -22,-22z" id="base 1 9 1" fill="none" stroke-width="1"></path><path d="M2,24c0,-12.15026 9.84974,-22 22,-22c12.15026,0 22,9.84974 22,22c0,12.15026 -9.84974,22 -22,22c-12.15026,0 -22,-9.84974 -22,-22z" id="base 1 5 1" fill="none" stroke-width="1"></path><path d="M2,24c0,-12.15026 9.84974,-22 22,-22c12.15026,0 22,9.84974 22,22c0,12.15026 -9.84974,22 -22,22c-12.15026,0 -22,-9.84974 -22,-22z" id="base 1 1 1" fill="none" stroke-width="1"></path><g fill="#000000" stroke-width="1" font-family="Roboto, sans-serif" font-weight="400" font-size="14" text-anchor="start"></g><rect x="2" y="2" width="44" height="22" fill="none" stroke-width="1"></rect><path d="M2,24v-22h44v22z" fill="none" stroke-width="1"></path><path d="M2,24v-22h44v22z" fill="none" stroke-width="1"></path><path d="M2,24v-22h44v22z" fill="none" stroke-width="1"></path><path d="M2,24v-22h44v22z" fill="none" stroke-width="1"></path><g id="Layer_1 1 1" fill="#000000" stroke-width="1" font-family="Roboto, sans-serif" font-weight="400" font-size="14" text-anchor="start"><g></g><g></g><g></g><g></g><g></g><g></g><g></g><g></g><g></g><g></g><g></g><g></g><g></g><g></g><g></g><g></g></g><rect x="2" y="2" width="44" height="22" fill="none" stroke-width="1"></rect><path d="M2,24v-22h44v22z" fill="none" stroke-width="1"></path><path d="M2,24v-22h44v22z" fill="none" stroke-width="1"></path><path d="M2,24v-22h44v22z" fill="none" stroke-width="1"></path><path d="M2,24v-22h44v22z" fill="none" stroke-width="1"></path><g id="Layer_1 2 1" fill="#000000" stroke-width="1" font-family="Roboto, sans-serif" font-weight="400" font-size="14" text-anchor="start"><g></g></g><rect x="2" y="2" width="44" height="22" fill="none" stroke-width="1"></rect><path d="M2,24v-22h44v22z" fill="none" stroke-width="1"></path><path d="M2,24v-22h44v22z" fill="none" stroke-width="1"></path><path d="M2,24v-22h44v22z" fill="none" stroke-width="1"></path><path d="M2,24v-22h44v22z" fill="none" stroke-width="1"></path></g></svg>